<mxfile host="app.diagrams.net" modified="2020-11-19T21:01:04.832Z" agent="5.0 (Windows NT 10.0; Win64; x64) AppleWebKit/537.36 (KHTML, like Gecko) Chrome/86.0.4240.198 Safari/537.36" etag="g56OmTZ6ysxmndaIiD08" version="13.10.0" type="github">
  <diagram id="uQd3hym3dJnkemIXZekN" name="Page-1">
    <mxGraphModel dx="1141" dy="612" grid="0" gridSize="10" guides="1" tooltips="1" connect="1" arrows="1" fold="1" page="1" pageScale="1" pageWidth="827" pageHeight="1169" math="0" shadow="0">
      <root>
        <mxCell id="0" />
        <mxCell id="1" parent="0" />
        <mxCell id="UNEvWyEhUeAOuFIiTYhh-5" value="Hostel" style="swimlane;fontStyle=1;align=center;verticalAlign=top;childLayout=stackLayout;horizontal=1;startSize=26;horizontalStack=0;resizeParent=1;resizeParentMax=0;resizeLast=0;collapsible=1;marginBottom=0;" vertex="1" parent="1">
          <mxGeometry x="83" y="77" width="146" height="118" as="geometry" />
        </mxCell>
        <mxCell id="UNEvWyEhUeAOuFIiTYhh-6" value="-rooms: List&lt;Room&gt;" style="text;strokeColor=none;fillColor=none;align=left;verticalAlign=top;spacingLeft=4;spacingRight=4;overflow=hidden;rotatable=0;points=[[0,0.5],[1,0.5]];portConstraint=eastwest;" vertex="1" parent="UNEvWyEhUeAOuFIiTYhh-5">
          <mxGeometry y="26" width="146" height="34" as="geometry" />
        </mxCell>
        <mxCell id="UNEvWyEhUeAOuFIiTYhh-7" value="" style="line;strokeWidth=1;fillColor=none;align=left;verticalAlign=middle;spacingTop=-1;spacingLeft=3;spacingRight=3;rotatable=0;labelPosition=right;points=[];portConstraint=eastwest;" vertex="1" parent="UNEvWyEhUeAOuFIiTYhh-5">
          <mxGeometry y="60" width="146" height="8" as="geometry" />
        </mxCell>
        <mxCell id="UNEvWyEhUeAOuFIiTYhh-8" value="+getRoom(String): Room" style="text;strokeColor=none;fillColor=none;align=left;verticalAlign=top;spacingLeft=4;spacingRight=4;overflow=hidden;rotatable=0;points=[[0,0.5],[1,0.5]];portConstraint=eastwest;" vertex="1" parent="UNEvWyEhUeAOuFIiTYhh-5">
          <mxGeometry y="68" width="146" height="50" as="geometry" />
        </mxCell>
        <mxCell id="UNEvWyEhUeAOuFIiTYhh-9" value="Student" style="swimlane;fontStyle=1;align=center;verticalAlign=top;childLayout=stackLayout;horizontal=1;startSize=26;horizontalStack=0;resizeParent=1;resizeParentMax=0;resizeLast=0;collapsible=1;marginBottom=0;" vertex="1" parent="1">
          <mxGeometry x="83" y="237" width="146" height="118" as="geometry" />
        </mxCell>
        <mxCell id="UNEvWyEhUeAOuFIiTYhh-10" value="-room: Room" style="text;strokeColor=none;fillColor=none;align=left;verticalAlign=top;spacingLeft=4;spacingRight=4;overflow=hidden;rotatable=0;points=[[0,0.5],[1,0.5]];portConstraint=eastwest;" vertex="1" parent="UNEvWyEhUeAOuFIiTYhh-9">
          <mxGeometry y="26" width="146" height="34" as="geometry" />
        </mxCell>
        <mxCell id="UNEvWyEhUeAOuFIiTYhh-11" value="" style="line;strokeWidth=1;fillColor=none;align=left;verticalAlign=middle;spacingTop=-1;spacingLeft=3;spacingRight=3;rotatable=0;labelPosition=right;points=[];portConstraint=eastwest;" vertex="1" parent="UNEvWyEhUeAOuFIiTYhh-9">
          <mxGeometry y="60" width="146" height="8" as="geometry" />
        </mxCell>
        <mxCell id="UNEvWyEhUeAOuFIiTYhh-12" value="+getRoom(): Room" style="text;strokeColor=none;fillColor=none;align=left;verticalAlign=top;spacingLeft=4;spacingRight=4;overflow=hidden;rotatable=0;points=[[0,0.5],[1,0.5]];portConstraint=eastwest;" vertex="1" parent="UNEvWyEhUeAOuFIiTYhh-9">
          <mxGeometry y="68" width="146" height="50" as="geometry" />
        </mxCell>
        <mxCell id="UNEvWyEhUeAOuFIiTYhh-13" value="Room" style="swimlane;fontStyle=1;align=center;verticalAlign=top;childLayout=stackLayout;horizontal=1;startSize=26;horizontalStack=0;resizeParent=1;resizeParentMax=0;resizeLast=0;collapsible=1;marginBottom=0;" vertex="1" parent="1">
          <mxGeometry x="278" y="77" width="180" height="118" as="geometry" />
        </mxCell>
        <mxCell id="UNEvWyEhUeAOuFIiTYhh-14" value="-furniture: List&lt;Furniture&gt;" style="text;strokeColor=none;fillColor=none;align=left;verticalAlign=top;spacingLeft=4;spacingRight=4;overflow=hidden;rotatable=0;points=[[0,0.5],[1,0.5]];portConstraint=eastwest;" vertex="1" parent="UNEvWyEhUeAOuFIiTYhh-13">
          <mxGeometry y="26" width="180" height="34" as="geometry" />
        </mxCell>
        <mxCell id="UNEvWyEhUeAOuFIiTYhh-15" value="" style="line;strokeWidth=1;fillColor=none;align=left;verticalAlign=middle;spacingTop=-1;spacingLeft=3;spacingRight=3;rotatable=0;labelPosition=right;points=[];portConstraint=eastwest;" vertex="1" parent="UNEvWyEhUeAOuFIiTYhh-13">
          <mxGeometry y="60" width="180" height="8" as="geometry" />
        </mxCell>
        <mxCell id="UNEvWyEhUeAOuFIiTYhh-16" value="+getFurniture(String): Furniture" style="text;strokeColor=none;fillColor=none;align=left;verticalAlign=top;spacingLeft=4;spacingRight=4;overflow=hidden;rotatable=0;points=[[0,0.5],[1,0.5]];portConstraint=eastwest;" vertex="1" parent="UNEvWyEhUeAOuFIiTYhh-13">
          <mxGeometry y="68" width="180" height="50" as="geometry" />
        </mxCell>
        <mxCell id="UNEvWyEhUeAOuFIiTYhh-17" value="Furniture" style="swimlane;fontStyle=1;align=center;verticalAlign=top;childLayout=stackLayout;horizontal=1;startSize=26;horizontalStack=0;resizeParent=1;resizeParentMax=0;resizeLast=0;collapsible=1;marginBottom=0;" vertex="1" parent="1">
          <mxGeometry x="278" y="237" width="184" height="150" as="geometry" />
        </mxCell>
        <mxCell id="UNEvWyEhUeAOuFIiTYhh-18" value="-description: String&#xa;-records: list&lt;String&gt;" style="text;strokeColor=none;fillColor=none;align=left;verticalAlign=top;spacingLeft=4;spacingRight=4;overflow=hidden;rotatable=0;points=[[0,0.5],[1,0.5]];portConstraint=eastwest;" vertex="1" parent="UNEvWyEhUeAOuFIiTYhh-17">
          <mxGeometry y="26" width="184" height="49" as="geometry" />
        </mxCell>
        <mxCell id="UNEvWyEhUeAOuFIiTYhh-19" value="" style="line;strokeWidth=1;fillColor=none;align=left;verticalAlign=middle;spacingTop=-1;spacingLeft=3;spacingRight=3;rotatable=0;labelPosition=right;points=[];portConstraint=eastwest;" vertex="1" parent="UNEvWyEhUeAOuFIiTYhh-17">
          <mxGeometry y="75" width="184" height="8" as="geometry" />
        </mxCell>
        <mxCell id="UNEvWyEhUeAOuFIiTYhh-20" value="+addRecords(String): void&#xa;+deleteRecords(String): void&#xa;+getRecords(String): list&lt;String)" style="text;strokeColor=none;fillColor=none;align=left;verticalAlign=top;spacingLeft=4;spacingRight=4;overflow=hidden;rotatable=0;points=[[0,0.5],[1,0.5]];portConstraint=eastwest;" vertex="1" parent="UNEvWyEhUeAOuFIiTYhh-17">
          <mxGeometry y="83" width="184" height="67" as="geometry" />
        </mxCell>
      </root>
    </mxGraphModel>
  </diagram>
</mxfile>
